# xmcd
#
# Track frame offsets: 
#        150
#        12533
#        24510
#        39185
#        50576
#        59890
#        73147
#        85802
#        100039
#        124583
#        137478
#        160676
#        171137
#        184644
#        210118
#
# Disc length: 3071 seconds
#
# Revision: 0
# Processed by: cddbd v1.5.2PL0 Copyright (c) Steve Scherf et al.
# Submitted via: ExactAudioCopy v0.99pb4
#
DISCID=c10bfd0f
DTITLE=John Lee Hooker - The Best of John Lee Hooker
DYEAR=2008
DGENRE=Blues
TTITLE0=I'm In The Mood
TTITLE1=Boom Boom
TTITLE2=Sugar Mama
TTITLE3=Please Don't Go
TTITLE4=Think Twice Before You Go
TTITLE5=Walkin' The Boogie
TTITLE6=Leave My Wife Alone
TTITLE7=Boogie Chillen
TTITLE8=I'm Bad Like Jesse James (Live)
TTITLE9=The Motor Ciry Is Burning
TTITLE10=It Serve You Right To Suffer
TTITLE11=Big Legs, Tight Skirt
TTITLE12=One Burbon, One Scotch, One Beer
TTITLE13=The Healer
TTITLE14=I'm In The Mood
EXTD=
EXTT0=
EXTT1=
EXTT2=
EXTT3=
EXTT4=
EXTT5=
EXTT6=
EXTT7=
EXTT8=
EXTT9=
EXTT10=
EXTT11=
EXTT12=
EXTT13=
EXTT14=
PLAYORDER=
